<svg width="38" height="24" viewBox="0 0 38 24" fill="none" xmlns="http://www.w3.org/2000/svg">
<path d="M1.94872 0H36.0513C37.1276 0 38 0.859632 38 1.92V22.08C38 23.1404 37.1276 24 36.0513 24H1.94872C0.87249 24 0 23.1404 0 22.08V1.92C0 0.859632 0.87249 0 1.94872 0Z" fill="#0E4595"/>
<path d="M14.2841 16.739L15.9094 7.34249H18.509L16.8825 16.739H14.2841ZM26.2741 7.54505C25.7591 7.35468 24.952 7.15039 23.9443 7.15039C21.3756 7.15039 19.5663 8.42479 19.5509 10.2513C19.5363 11.6016 20.8426 12.3548 21.8286 12.8043C22.8405 13.2648 23.1806 13.5585 23.1758 13.9699C23.1694 14.5997 22.3678 14.8874 21.6206 14.8874C20.5802 14.8874 20.0274 14.745 19.1737 14.3942L18.8387 14.2449L18.4739 16.3484C19.081 16.6107 20.2038 16.8379 21.3696 16.8497C24.1021 16.8497 25.876 15.5899 25.8962 13.6393C25.9059 12.5704 25.2134 11.757 23.7136 11.0863C22.805 10.6517 22.2486 10.3615 22.2545 9.92143C22.2545 9.53086 22.7255 9.11316 23.7431 9.11316C24.5932 9.1002 25.2091 9.28284 25.6888 9.47316L25.9218 9.58164L26.2741 7.54505ZM32.9635 7.34234H30.9548C30.3325 7.34234 29.8668 7.50972 29.5936 8.12158L25.733 16.7328H28.4627C28.4627 16.7328 28.9089 15.5749 29.0099 15.3207C29.3083 15.3207 31.96 15.3248 32.3392 15.3248C32.4169 15.6537 32.6554 16.7328 32.6554 16.7328H35.0676L32.9635 7.34205V7.34234ZM29.7765 13.41C29.9915 12.8686 30.8123 10.7833 30.8123 10.7833C30.7969 10.8084 31.0256 10.2393 31.1569 9.88649L31.3325 10.6967C31.3325 10.6967 31.8304 12.9397 31.9344 13.41H29.7765ZM12.0773 7.34234L9.53226 13.7503L9.26105 12.4481C8.78727 10.947 7.31111 9.32066 5.66089 8.50644L7.98795 16.724L10.7384 16.721L14.8309 7.34225H12.0773" fill="white"/>
<path d="M7.15741 7.34199H2.96567L2.9325 7.53749C6.19358 8.31529 8.35139 10.1949 9.24732 12.4532L8.3358 8.13509C8.17844 7.54013 7.7221 7.36258 7.15751 7.3418" fill="#F2AE14"/>
</svg>
