<svg width="16" height="16" viewBox="0 0 16 16" fill="none" xmlns="http://www.w3.org/2000/svg">
<path d="M5.46875 12.7109C6.35938 13.1797 7.20312 13.4141 8 13.4141C8.79688 13.4141 9.62891 13.1797 10.4961 12.7109C11.3867 12.2422 12.0547 11.668 12.5 10.9883C12.4766 10.332 11.9492 9.78125 10.918 9.33594C9.88672 8.89062 8.91406 8.66797 8 8.66797C7.08594 8.66797 6.11328 8.89062 5.08203 9.33594C4.05078 9.75781 3.52344 10.3086 3.5 10.9883C3.94531 11.668 4.60156 12.2422 5.46875 12.7109ZM9.58203 3.42969C9.13672 2.98437 8.60938 2.76172 8 2.76172C7.39062 2.76172 6.86328 2.98437 6.41797 3.42969C5.97266 3.875 5.75 4.40234 5.75 5.01172C5.75 5.62109 5.97266 6.14844 6.41797 6.59375C6.86328 7.03906 7.39062 7.26172 8 7.26172C8.60938 7.26172 9.13672 7.03906 9.58203 6.59375C10.0273 6.14844 10.25 5.62109 10.25 5.01172C10.25 4.40234 10.0273 3.875 9.58203 3.42969ZM2.69141 2.72656C4.16797 1.25 5.9375 0.511719 8 0.511719C10.0625 0.511719 11.8203 1.25 13.2734 2.72656C14.75 4.17969 15.4883 5.9375 15.4883 8C15.4883 10.0625 14.75 11.832 13.2734 13.3086C11.8203 14.7617 10.0625 15.4883 8 15.4883C5.9375 15.4883 4.16797 14.7617 2.69141 13.3086C1.23828 11.832 0.511719 10.0625 0.511719 8C0.511719 5.9375 1.23828 4.17969 2.69141 2.72656Z" fill="#3A3A3A"/>
</svg>
